<svg xmlns="http://www.w3.org/2000/svg" width="13.849" height="13.849" viewBox="0 0 13.849 13.849">
  <g id="Grupo_7596" data-name="Grupo 7596" transform="translate(-431.453 -339.418)">
    <path id="Caminho_6610" data-name="Caminho 6610" d="M500.509,413.082l.012-.013.018-.02.01-.013.017-.023.007-.011.017-.028,0-.008c.006-.011.011-.022.016-.033l0-.005c0-.012.01-.025.013-.037v-.005c0-.013.007-.025.01-.038s0-.008,0-.012,0-.022,0-.033a.453.453,0,0,0,0-.092c0-.011,0-.022,0-.033s0-.008,0-.012-.006-.026-.01-.038v-.005c0-.013-.008-.025-.013-.037l0-.005c0-.011-.01-.022-.016-.033l0-.008c-.005-.01-.011-.019-.017-.029l-.006-.01-.019-.026-.008-.011a.45.45,0,0,0-.03-.034l-2.308-2.308a.462.462,0,1,0-.653.653l1.52,1.52h-4.425a.462.462,0,1,0,0,.923h4.425l-1.52,1.52a.462.462,0,0,0,.653.653Z" transform="translate(-59.035 -66.413)" fill="#3ad6ca"/>
    <path id="Caminho_6611" data-name="Caminho 6611" d="M445.3,346.343a6.925,6.925,0,1,0-6.925,6.925A6.932,6.932,0,0,0,445.3,346.343Zm-12.926,0a6,6,0,1,1,6,6A6.008,6.008,0,0,1,432.376,346.343Z" fill="#3ad6ca"/>
  </g>
</svg>
