<svg xmlns="http://www.w3.org/2000/svg" width="43.486" height="43.486" viewBox="0 0 43.486 43.486">
  <g id="Grupo_7597" data-name="Grupo 7597" transform="translate(-431.453 -339.418)">
    <path id="Caminho_6610" data-name="Caminho 6610" d="M514.05,419.708c.013-.013.024-.027.036-.04s.04-.042.058-.064.021-.028.032-.042.036-.047.053-.072.014-.023.021-.034c.018-.029.037-.058.053-.088l.011-.024c.018-.035.035-.069.049-.1l.006-.017c.015-.038.03-.077.042-.117l0-.017c.011-.039.022-.079.03-.12,0-.012,0-.025.006-.038.006-.034.012-.068.015-.1a1.409,1.409,0,0,0,0-.289c0-.035-.009-.069-.015-.1,0-.013,0-.026-.006-.038-.008-.041-.019-.081-.03-.121,0-.005,0-.011,0-.016-.012-.04-.026-.079-.042-.117l-.006-.016c-.015-.036-.032-.07-.049-.1L514.3,418c-.017-.031-.035-.061-.054-.091-.006-.01-.012-.021-.019-.031-.019-.028-.039-.054-.06-.081l-.025-.033c-.03-.036-.062-.072-.095-.105L506.8,410.41a1.449,1.449,0,1,0-2.05,2.049l4.773,4.774h-13.9a1.449,1.449,0,0,0,0,2.9h13.895l-4.773,4.773a1.45,1.45,0,0,0,2.05,2.05Z" transform="translate(-51.132 -57.522)" fill="#3ad6ca"/>
    <path id="Caminho_6611" data-name="Caminho 6611" d="M474.939,361.161A21.743,21.743,0,1,0,453.2,382.9,21.768,21.768,0,0,0,474.939,361.161Zm-40.587,0A18.844,18.844,0,1,1,453.2,380.005,18.865,18.865,0,0,1,434.352,361.161Z" transform="translate(0 0)" fill="#3ad6ca"/>
  </g>
</svg>
