<svg id="Grupo_7566" data-name="Grupo 7566" xmlns="http://www.w3.org/2000/svg" width="49.774" height="49.822" viewBox="0 0 49.774 49.822">
  <path id="Caminho_5575" data-name="Caminho 5575" d="M423.032,40.464c-.939-1.564-3.066-2.029-4.593-2.247l-.368-.053a59.735,59.735,0,0,1,4.556,7.708c.142-.31.255-.57.334-.785.716-1.944.737-3.5.071-4.623" transform="translate(-380.827 -24.127)" fill="#fff"/>
  <path id="Caminho_5576" data-name="Caminho 5576" d="M380.252,96.445c.84,2.181,1.724,3.3,2.778,3.505,1.32.269,3.066-.82,5.644-3.521.528-.548,1.1-1.2,1.692-1.954-2.944.074-6.489.364-10.549.868.086.208.435,1.1.435,1.1" transform="translate(-356.643 -59.726)" fill="#fff"/>
  <path id="Caminho_5577" data-name="Caminho 5577" d="M364.983,48.08a56.3,56.3,0,0,1,4.359,8.281c.378-.051.769-.113,1.159-.172a70.817,70.817,0,0,1,12.492-.722,81.163,81.163,0,0,0,5.5-9.135,57.518,57.518,0,0,0-5.987-9.1,63.665,63.665,0,0,0-11.889.167,53.86,53.86,0,0,1-2.825,5.719c-1.079,1.881-2.014,3.505-2.813,4.958" transform="translate(-347.265 -23.412)" fill="#fff"/>
  <path id="Caminho_5578" data-name="Caminho 5578" d="M360.842,7.293a24.928,24.928,0,0,0-32.853-2.1,25.109,25.109,0,0,0-8.726,12.893,70.343,70.343,0,0,1,19.943-5.752c.527-1.639.891-3.176,1.224-4.535.682-2.834,1.167-4.882,2.493-5.246,1.41-.4,3.66,1.154,7.772,5.347,0,0,0,0,0,0l0,0,3.116,3.688a37.244,37.244,0,0,1,4.726.607l.172.04c1.3.26,4.033.814,5.157,2.817a5.116,5.116,0,0,1,.015,4.35c-.719,1.988-1.475,3.785-2.3,5.509a43.185,43.185,0,0,1,1.758,5.206c.016.083.044.217.063.358a1.268,1.268,0,0,1-.282.842l-.125.163-.065-.2A43.493,43.493,0,0,0,361.062,26a47.724,47.724,0,0,1-3.739,6.218,42.613,42.613,0,0,1,9.18,1.561,24.928,24.928,0,0,0-5.661-26.49" transform="translate(-318.361)" fill="#fff"/>
  <path id="Caminho_5579" data-name="Caminho 5579" d="M357.96,76.558c.589.875,2.235,1.13,5.309.814a57.754,57.754,0,0,0-3.478-7.379c-1.654,3.119-2.593,5.428-1.831,6.565" transform="translate(-342.656 -44.249)" fill="#fff"/>
  <path id="Caminho_5580" data-name="Caminho 5580" d="M391.815,23.2c-2.973-3.509-4.675-4.875-5.864-4.686-1.24.2-2.025,2.1-3.211,4.987l-.04.1a67.661,67.661,0,0,1,9.115-.4" transform="translate(-358.465 -11.691)" fill="#fff"/>
  <path id="Caminho_5581" data-name="Caminho 5581" d="M353.866,59.545c-1.452,1.807-3.116,3.666-5.25,5.87-3.1,3.177-4.812,4.627-6.193,4.277-.955-.248-1.664-1.367-2.3-3.647-.54-1.911-1.109-3.747-1.706-5.458l-2.269.321c-5.093.738-7.925.335-8.922-1.24-1.429-2.239,1.227-6.638,4.854-12.142a41.156,41.156,0,0,0-2.592-3.437,2.353,2.353,0,0,1-.232-.278l-.128-.156.2-.018a1.128,1.128,0,0,1,.879.3c.819.871,1.626,1.809,2.392,2.792l.355-.548L334.6,43.7a25,25,0,0,0,2.319-4.51c-9.282,1.4-15.967,4.28-18.79,7.934-1.092,1.334-1.509,2.657-1.23,5.111a24.99,24.99,0,0,0,7.231,15.13,24.514,24.514,0,0,0,17.55,7.234,24.9,24.9,0,0,0,18.91-8.7c1.139-1.528,1.483-2.8,1.008-3.79-.721-1.522-3.319-2.375-7.728-2.564" transform="translate(-316.811 -24.774)" fill="#fff"/>
</svg>
